<svg width="2859" height="277" fill="none" xmlns="http://www.w3.org/2000/svg"><path d="M569.1 29h45.5v245h-45.5V29ZM442.4 274h-45.5V29h45.5v245Zm130.2-105H438.55v-38.85H572.6V169Zm186.05 107.45c-20.767 0-38.967-4.083-54.6-12.25-15.4-8.4-27.417-19.833-36.05-34.3-8.4-14.467-12.6-30.917-12.6-49.35 0-18.667 4.083-35.117 12.25-49.35 8.4-14.467 19.833-25.783 34.3-33.95C716.65 89.083 733.333 85 752 85c18.2 0 34.416 3.967 48.65 11.9 14.233 7.933 25.433 19.133 33.6 33.6 8.166 14.467 12.25 31.5 12.25 51.1 0 1.867-.117 3.967-.35 6.3 0 2.333-.117 4.55-.35 6.65H690.05V165.5H822.7l-17.15 9.1c.233-10.733-1.984-20.183-6.65-28.35-4.667-8.167-11.084-14.583-19.25-19.25-7.934-4.667-17.15-7-27.65-7-10.734 0-20.184 2.333-28.35 7-7.934 4.667-14.234 11.2-18.9 19.6-4.434 8.167-6.65 17.85-6.65 29.05v7c0 11.2 2.566 21.117 7.7 29.75 5.133 8.633 12.366 15.283 21.7 19.95 9.333 4.667 20.066 7 32.2 7 10.5 0 19.95-1.633 28.35-4.9 8.4-3.267 15.866-8.4 22.4-15.4L833.9 246c-8.4 9.8-19.017 17.383-31.85 22.75-12.6 5.133-27.067 7.7-43.4 7.7ZM993.297 274v-37.8l-2.45-8.05V162c0-12.833-3.85-22.75-11.55-29.75-7.7-7.233-19.366-10.85-35-10.85-10.5 0-20.883 1.633-31.15 4.9-10.033 3.267-18.55 7.817-25.55 13.65l-17.15-31.85c10.034-7.7 21.934-13.417 35.7-17.15 14-3.967 28.467-5.95 43.4-5.95 27.067 0 47.95 6.533 62.653 19.6 14.93 12.833 22.4 32.783 22.4 59.85V274h-41.303Zm-58.8 2.45c-14 0-26.25-2.333-36.75-7-10.5-4.9-18.666-11.55-24.5-19.95-5.6-8.633-8.4-18.317-8.4-29.05 0-10.5 2.45-19.95 7.35-28.35 5.134-8.4 13.417-15.05 24.85-19.95 11.434-4.9 26.6-7.35 45.5-7.35h54.25v29.05h-51.1c-14.933 0-24.966 2.45-30.1 7.35-5.133 4.667-7.7 10.5-7.7 17.5 0 7.933 3.15 14.233 9.45 18.9 6.3 4.667 15.05 7 26.25 7 10.734 0 20.3-2.45 28.7-7.35 8.634-4.9 14.817-12.133 18.55-21.7l7.35 26.25c-4.2 10.967-11.783 19.483-22.75 25.55-10.733 6.067-24.383 9.1-40.95 9.1ZM1085.49 274V14.3h43.75V274h-43.75Zm175.51 2.45c-20.54 0-36.4-5.25-47.6-15.75-11.2-10.733-16.8-26.483-16.8-47.25V45.8h43.75v166.6c0 8.867 2.21 15.75 6.65 20.65 4.66 4.9 11.08 7.35 19.25 7.35 9.8 0 17.96-2.567 24.5-7.7l12.25 31.15c-5.14 4.2-11.44 7.35-18.9 9.45-7.47 2.1-15.17 3.15-23.1 3.15Zm-95.2-152.95v-35h124.6v35h-124.6ZM1439.79 85c14.93 0 28.23 2.917 39.9 8.75 11.9 5.833 21.23 14.817 28 26.95 6.76 11.9 10.15 27.3 10.15 46.2V274h-43.75V172.5c0-16.567-3.97-28.933-11.9-37.1-7.7-8.167-18.55-12.25-32.55-12.25-10.27 0-19.37 2.1-27.3 6.3-7.94 4.2-14.12 10.5-18.55 18.9-4.2 8.167-6.3 18.55-6.3 31.15V274h-43.75V14.3h43.75v123.2l-9.45-15.4c6.53-11.9 15.98-21 28.35-27.3 12.6-6.533 27.06-9.8 43.4-9.8Zm396.17-56h45.5v245h-45.5V29Zm-126.7 245h-45.5V29h45.5v245Zm130.2-105h-134.05v-38.85h134.05V169Zm213.35 105v-37.8l-2.45-8.05V162c0-12.833-3.85-22.75-11.55-29.75-7.7-7.233-19.36-10.85-35-10.85-10.5 0-20.88 1.633-31.15 4.9-10.03 3.267-18.55 7.817-25.55 13.65l-17.15-31.85c10.04-7.7 21.94-13.417 35.7-17.15 14-3.967 28.47-5.95 43.4-5.95 27.07 0 47.95 6.533 62.65 19.6 14.94 12.833 22.4 32.783 22.4 59.85V274h-41.3Zm-58.8 2.45c-14 0-26.25-2.333-36.75-7-10.5-4.9-18.66-11.55-24.5-19.95-5.6-8.633-8.4-18.317-8.4-29.05 0-10.5 2.45-19.95 7.35-28.35 5.14-8.4 13.42-15.05 24.85-19.95 11.44-4.9 26.6-7.35 45.5-7.35h54.25v29.05h-51.1c-14.93 0-24.96 2.45-30.1 7.35-5.13 4.667-7.7 10.5-7.7 17.5 0 7.933 3.15 14.233 9.45 18.9 6.3 4.667 15.05 7 26.25 7 10.74 0 20.3-2.45 28.7-7.35 8.64-4.9 14.82-12.133 18.55-21.7l7.35 26.25c-4.2 10.967-11.78 19.483-22.75 25.55-10.73 6.067-24.38 9.1-40.95 9.1Zm151-2.45V87.1h41.65v51.45l-4.9-15.05c5.6-12.6 14.35-22.167 26.25-28.7 12.13-6.533 27.18-9.8 45.15-9.8v41.65c-1.87-.467-3.62-.7-5.25-.7-1.63-.233-3.27-.35-4.9-.35-16.57 0-29.75 4.9-39.55 14.7-9.8 9.567-14.7 23.917-14.7 43.05V274h-43.75Zm243.61 2.45c-15.86 0-29.98-3.5-42.35-10.5-12.36-7-22.16-17.5-29.4-31.5-7-14.233-10.5-32.2-10.5-53.9 0-21.933 3.62-39.9 10.85-53.9 7.47-14 17.39-24.383 29.75-31.15 12.6-7 26.49-10.5 41.65-10.5 18.44 0 34.65 3.967 48.65 11.9 14.24 7.933 25.44 19.017 33.6 33.25 8.4 14.233 12.6 31.033 12.6 50.4 0 19.367-4.2 36.167-12.6 50.4-8.16 14.233-19.36 25.433-33.6 33.6-14 7.933-30.21 11.9-48.65 11.9Zm-103.6-2.45V14.3h43.75v116.2l-3.5 49.7 1.4 49.7V274h-41.65Zm98.7-35c10.5 0 19.84-2.333 28-7 8.4-4.667 15.05-11.433 19.95-20.3 4.9-8.867 7.35-19.25 7.35-31.15 0-12.133-2.45-22.517-7.35-31.15-4.9-8.867-11.55-15.633-19.95-20.3-8.16-4.667-17.5-7-28-7s-19.95 2.333-28.35 7c-8.4 4.667-15.05 11.433-19.95 20.3-4.9 8.633-7.35 19.017-7.35 31.15 0 11.9 2.45 22.283 7.35 31.15 4.9 8.867 11.55 15.633 19.95 20.3 8.4 4.667 17.85 7 28.35 7Zm220 37.45c-19.14 0-36.17-4.083-51.1-12.25-14.94-8.4-26.72-19.833-35.35-34.3-8.64-14.467-12.95-30.917-12.95-49.35 0-18.667 4.31-35.117 12.95-49.35 8.63-14.467 20.41-25.783 35.35-33.95 14.93-8.167 31.96-12.25 51.1-12.25 19.36 0 36.51 4.083 51.45 12.25 15.16 8.167 26.95 19.367 35.35 33.6 8.63 14.233 12.95 30.8 12.95 49.7 0 18.433-4.32 34.883-12.95 49.35-8.4 14.467-20.19 25.9-35.35 34.3-14.94 8.167-32.09 12.25-51.45 12.25Zm0-37.45c10.73 0 20.3-2.333 28.7-7 8.4-4.667 14.93-11.433 19.6-20.3 4.9-8.867 7.35-19.25 7.35-31.15 0-12.133-2.45-22.517-7.35-31.15-4.67-8.867-11.2-15.633-19.6-20.3-8.4-4.667-17.85-7-28.35-7-10.74 0-20.3 2.333-28.7 7-8.17 4.667-14.7 11.433-19.6 20.3-4.9 8.633-7.35 19.017-7.35 31.15 0 11.9 2.45 22.283 7.35 31.15 4.9 8.867 11.43 15.633 19.6 20.3 8.4 4.667 17.85 7 28.35 7Zm136.33 35V87.1h41.65v51.45l-4.9-15.05c5.6-12.6 14.35-22.167 26.25-28.7 12.13-6.533 27.18-9.8 45.15-9.8v41.65c-1.87-.467-3.62-.7-5.25-.7-1.63-.233-3.27-.35-4.9-.35-16.57 0-29.75 4.9-39.55 14.7-9.8 9.567-14.7 23.917-14.7 43.05V274h-43.75Z" fill="#09979C"/><mask id="a" fill="#fff"><path fill-rule="evenodd" clip-rule="evenodd" d="M10 21C4.477 21 0 25.477 0 31v66.645L253 61.07V31c0-5.523-4.477-10-10-10H10Zm243 141.875L0 126.533V264c0 5.523 4.477 10 10 10h233c5.523 0 10-4.477 10-10V162.875Z"/></mask><path fill-rule="evenodd" clip-rule="evenodd" d="M10 21C4.477 21 0 25.477 0 31v66.645L253 61.07V31c0-5.523-4.477-10-10-10H10Zm243 141.875L0 126.533V264c0 5.523 4.477 10 10 10h233c5.523 0 10-4.477 10-10V162.875Z" fill="#09979C"/><path d="M0 97.645h-26v30.029l29.72-4.296L0 97.645ZM253 61.07l3.72 25.732 22.28-3.22V61.07h-26ZM0 126.533l3.697-25.736L-26 96.531v30.002H0Zm253 36.342h26v-22.532l-22.303-3.203L253 162.875ZM26 31c0 8.837-7.163 16-16 16V-5C-9.882-5-26 11.118-26 31h52Zm0 66.645V31h-52v66.645h52Zm223.28-62.308-253 36.576 7.44 51.465 253-36.576-7.44-51.465ZM227 31v30.07h52V31h-52Zm16 16c-8.837 0-16-7.163-16-16h52c0-19.882-16.118-36-36-36v52ZM10 47h233V-5H10v52ZM-3.697 152.269l253 36.342 7.394-51.471-253-36.343-7.394 51.472ZM26 264V126.533h-52V264h52Zm-16-16c8.837 0 16 7.163 16 16h-52c0 19.882 16.118 36 36 36v-52Zm233 0H10v52h233v-52Zm-16 16c0-8.837 7.163-16 16-16v52c19.882 0 36-16.118 36-36h-52Zm0-101.125V264h52V162.875h-52Z" fill="#09979C" mask="url(#a)"/></svg>
